<mxfile host="app.diagrams.net" agent="Mozilla/5.0 (Windows NT 10.0; Win64; x64) AppleWebKit/537.36 (KHTML, like Gecko) Chrome/130.0.0.0 Safari/537.36" version="24.8.4">
  <diagram name="Page-1" id="K_43BjjAqympcjxKaQWv">
    <mxGraphModel dx="1418" dy="819" grid="1" gridSize="10" guides="1" tooltips="1" connect="1" arrows="1" fold="1" page="1" pageScale="1" pageWidth="850" pageHeight="1100" math="0" shadow="0">
      <root>
        <mxCell id="0" />
        <mxCell id="1" parent="0" />
        <mxCell id="Jyy9zWuHL0qmPsa1BVbi-15" style="edgeStyle=orthogonalEdgeStyle;rounded=0;orthogonalLoop=1;jettySize=auto;html=1;" edge="1" parent="1">
          <mxGeometry relative="1" as="geometry">
            <mxPoint x="480" y="150" as="targetPoint" />
            <mxPoint x="270" y="150" as="sourcePoint" />
          </mxGeometry>
        </mxCell>
        <mxCell id="Jyy9zWuHL0qmPsa1BVbi-18" value="ADoor::ServerInteract" style="edgeLabel;html=1;align=center;verticalAlign=middle;resizable=0;points=[];" vertex="1" connectable="0" parent="Jyy9zWuHL0qmPsa1BVbi-15">
          <mxGeometry x="0.1714" y="1" relative="1" as="geometry">
            <mxPoint x="-13" y="1" as="offset" />
          </mxGeometry>
        </mxCell>
        <mxCell id="Jyy9zWuHL0qmPsa1BVbi-14" value="Client ACharacter" style="whiteSpace=wrap;html=1;aspect=fixed;" vertex="1" parent="1">
          <mxGeometry x="190" y="110" width="80" height="80" as="geometry" />
        </mxCell>
        <mxCell id="Jyy9zWuHL0qmPsa1BVbi-21" style="edgeStyle=orthogonalEdgeStyle;rounded=0;orthogonalLoop=1;jettySize=auto;html=1;" edge="1" parent="1" source="Jyy9zWuHL0qmPsa1BVbi-17" target="Jyy9zWuHL0qmPsa1BVbi-19">
          <mxGeometry relative="1" as="geometry">
            <Array as="points">
              <mxPoint x="520" y="230" />
              <mxPoint x="280" y="230" />
            </Array>
          </mxGeometry>
        </mxCell>
        <mxCell id="Jyy9zWuHL0qmPsa1BVbi-23" value="NetMulticast ADoor::ToggleDoor" style="edgeLabel;html=1;align=center;verticalAlign=middle;resizable=0;points=[];" vertex="1" connectable="0" parent="Jyy9zWuHL0qmPsa1BVbi-21">
          <mxGeometry x="-0.0857" y="-2" relative="1" as="geometry">
            <mxPoint as="offset" />
          </mxGeometry>
        </mxCell>
        <mxCell id="Jyy9zWuHL0qmPsa1BVbi-24" style="edgeStyle=orthogonalEdgeStyle;rounded=0;orthogonalLoop=1;jettySize=auto;html=1;" edge="1" parent="1">
          <mxGeometry relative="1" as="geometry">
            <mxPoint x="521" y="190" as="sourcePoint" />
            <mxPoint x="561" y="370" as="targetPoint" />
          </mxGeometry>
        </mxCell>
        <mxCell id="Jyy9zWuHL0qmPsa1BVbi-26" value="NetMulticast ADoor::Playanimation" style="edgeLabel;html=1;align=center;verticalAlign=middle;resizable=0;points=[];" vertex="1" connectable="0" parent="Jyy9zWuHL0qmPsa1BVbi-24">
          <mxGeometry x="-0.0545" y="1" relative="1" as="geometry">
            <mxPoint as="offset" />
          </mxGeometry>
        </mxCell>
        <mxCell id="Jyy9zWuHL0qmPsa1BVbi-17" value="Server" style="whiteSpace=wrap;html=1;aspect=fixed;" vertex="1" parent="1">
          <mxGeometry x="480" y="110" width="80" height="80" as="geometry" />
        </mxCell>
        <mxCell id="Jyy9zWuHL0qmPsa1BVbi-19" value="Client" style="rounded=0;whiteSpace=wrap;html=1;" vertex="1" parent="1">
          <mxGeometry x="220" y="370" width="120" height="60" as="geometry" />
        </mxCell>
        <mxCell id="Jyy9zWuHL0qmPsa1BVbi-20" value="Client" style="rounded=0;whiteSpace=wrap;html=1;" vertex="1" parent="1">
          <mxGeometry x="500" y="370" width="120" height="60" as="geometry" />
        </mxCell>
      </root>
    </mxGraphModel>
  </diagram>
</mxfile>
